<!DOCTYPE svg PUBLIC "-//W3C//DTD SVG 1.1//EN" "http://www.w3.org/Graphics/SVG/1.1/DTD/svg11.dtd">
<!-- Uploaded to: SVG Repo, www.svgrepo.com, Transformed by: SVG Repo Mixer Tools -->
<svg fill="#ffffff" version="1.1" id="Capa_1" xmlns="http://www.w3.org/2000/svg" xmlns:xlink="http://www.w3.org/1999/xlink" width="800px" height="800px" viewBox="0 0 485.291 485.291" xml:space="preserve" stroke="#ffffff">
<g id="SVGRepo_bgCarrier" stroke-width="0"/>
<g id="SVGRepo_tracerCarrier" stroke-linecap="round" stroke-linejoin="round"/>
<g id="SVGRepo_iconCarrier"> <g> <g> <path d="M482.719,325.317H341.424v-19.755c0-1.423-1.152-2.577-2.576-2.577h-28.344v-35.864v-9.658 c0-1.125-0.73-2.118-1.803-2.457l-19.305-6.098v-26.09c0-1.423-1.154-2.577-2.578-2.577h-6.41V155.25 c0-1.423-1.152-2.577-2.578-2.577h-5.865v-51.965c0-1.249-1.014-2.26-2.262-2.26h-6.92l-11.945-51.874h0.732 c2.715,0,4.928-2.21,4.928-4.928c0-2.717-2.213-4.928-4.928-4.928h-7.077v-1.973c2.786-0.908,4.812-3.529,4.812-6.616 c0-3.087-2.023-5.708-4.812-6.616v-1.974c0-1.186-0.962-2.147-2.148-2.147s-2.147,0.961-2.147,2.147v1.973 c-2.789,0.908-4.812,3.529-4.812,6.616s2.023,5.709,4.812,6.617v1.973h-6.473c-2.717,0-4.928,2.211-4.928,4.928 c0,2.718,2.21,4.928,4.928,4.928h0.734l-11.907,51.697l-0.178,0.177h-6.784c-1.248,0-2.26,1.011-2.26,2.26v51.965h-5.868 c-1.423,0-2.577,1.154-2.577,2.577v64.991h-6.411c-1.423,0-2.577,1.154-2.577,2.577v26.09l-19.306,6.098 c-1.072,0.339-1.801,1.332-1.801,2.457v9.658v35.864h-28.344c-1.423,0-2.577,1.154-2.577,2.577v19.755H2.577 c-1.423,0-2.577,1.153-2.577,2.576v137.429c0,1.424,1.154,2.577,2.577,2.577h40.584c1.423,0,2.577-1.153,2.577-2.577v-48.528 c0-15.866,12.908-28.774,28.774-28.774c15.867,0,28.774,12.908,28.774,28.774v48.528c0,1.424,1.154,2.577,2.577,2.577h40.584 h67.426c1.423,0,2.577-1.153,2.577-2.577v-83.745c0-14.444,11.752-26.197,26.197-26.197s26.197,11.753,26.197,26.197v83.745 c0,1.424,1.152,2.577,2.578,2.577h67.424h40.586c1.422,0,2.576-1.153,2.576-2.577v-48.528c0-15.866,12.908-28.774,28.773-28.774 s28.773,12.908,28.773,28.774v48.528c0,1.424,1.152,2.577,2.576,2.577h40.586c1.422,0,2.574-1.153,2.574-2.577V327.893 C485.293,326.47,484.141,325.317,482.719,325.317z M242.345,25.464c1.469,0,2.664,1.195,2.664,2.664 c0,1.47-1.194,2.665-2.664,2.665c-1.47,0-2.665-1.195-2.665-2.665C239.68,26.659,240.876,25.464,242.345,25.464z M480.141,330.47 v18.896H341.424V330.47H480.141z M249.575,134.694l-5.232-5.201c-1.005-1-2.629-0.999-3.634,0l-4.989,4.959V121.06 c0-3.82,3.107-6.928,6.927-6.928c3.819,0,6.928,3.108,6.928,6.928V134.694z M242.526,134.953l17.826,17.72h-2.771l-13.24-13.101 c-1.006-0.995-2.623-0.994-3.625,0l-13.236,13.101h-2.776L242.526,134.953z M234.803,152.673l7.723-7.644l7.726,7.644H234.803z M236.771,98.073l5.755-5.696l5.755,5.696H236.771z M254.389,98.073l-10.354-10.244c-0.838-0.828-2.184-0.828-3.021,0 l-10.348,10.243h-1.823l13.682-13.601l13.682,13.601L254.389,98.073L254.389,98.073z M233.092,41.645 c0-0.35,0.284-0.633,0.633-0.633h17.845c0.35,0,0.631,0.284,0.631,0.633s-0.281,0.633-0.631,0.633h-3.432h-5.35h-0.286h-5.346 h-3.433C233.376,42.279,233.092,41.995,233.092,41.645z M238.866,46.574h3.637h0.286h3.641l10.668,46.329l-13.059-12.981 c-0.838-0.833-2.19-0.833-3.028,0L228.267,92.59L238.866,46.574z M267.443,102.967v49.49l-13.35-13.27v-18.126 c0-6.312-5.136-11.447-11.447-11.447c-6.312,0-11.447,5.135-11.447,11.447v17.884l-13.35,13.271v-49.249H267.443z M218.454,157.827H266.6h8.656v1.717H210.04v-1.717H218.454z M210.039,164.698h65.215v55.543h-65.215V164.698z M201.052,225.394 h6.411h70.367h6.412v21.886l-40.819-12.89c-0.504-0.16-1.046-0.16-1.551,0l-40.819,12.89v-21.886H201.052z M242.647,239.55 l62.701,19.8v4.253l-61.926-19.557c-0.504-0.158-1.046-0.158-1.551,0l-61.926,19.557v-4.253L242.647,239.55z M179.946,269.007 l62.701-19.801l62.701,19.801v33.979H179.946V269.007z M143.871,330.47v18.896H5.154V330.47H143.871z M74.512,382.866 c-18.708,0-33.927,15.22-33.927,33.928v45.951H5.154V354.52h138.717v108.225H108.44v-45.951 C108.44,398.084,93.22,382.866,74.512,382.866z M149.024,462.745v-18.607h62.272v18.607H149.024z M242.647,350.226 c-17.287,0-31.351,14.062-31.351,31.351v57.405h-62.272V327.893v-19.755h28.345h130.557h28.346v19.755v111.089h-62.273v-57.405 C273.998,364.29,259.934,350.226,242.647,350.226z M273.998,444.136h62.271v18.608h-62.271V444.136z M444.709,462.745v-45.951 c0-18.708-15.219-33.928-33.928-33.928c-18.707,0-33.928,15.22-33.928,33.928v45.951h-35.43V354.52h138.717v108.225H444.709z"/> <path d="M242.647,168.134c-11.524,0-20.9,9.375-20.9,20.9s9.375,20.9,20.9,20.9s20.9-9.375,20.9-20.9 C263.549,177.509,254.172,168.134,242.647,168.134z M242.647,204.78c-8.683,0-15.747-7.062-15.747-15.747 c0-8.683,7.064-15.747,15.747-15.747s15.748,7.064,15.748,15.747C258.395,197.717,251.33,204.78,242.647,204.78z"/> <path d="M251.236,186.457h-6.012v-6.012c0-1.423-1.154-2.577-2.578-2.577c-1.423,0-2.577,1.154-2.577,2.577v8.588 c0,1.423,1.154,2.577,2.577,2.577h8.589c1.424,0,2.576-1.153,2.576-2.577C253.812,187.611,252.66,186.457,251.236,186.457z"/> </g> </g> </g>
</svg>